<?xml version="1.0" standalone="no"?>
<svg version="1.1" id="downloadSvg" xmlns="http://www.w3.org/2000/svg" xmlns:xlink="http://www.w3.org/1999/xlink" x="0px" y="0px" viewBox="0 0 1200 1200" enable-background="new 0 0 1200 1200" xml:space="preserve" height="512" width="512">
<g>
	<path fill="#AAC70E" d="M600.008,1149.997C296.732,1149.997,50,903.273,50,600.003c0-303.268,246.732-550,550.008-550&#10;&#9;&#9;c303.268,0,549.992,246.732,549.992,550C1150,903.273,903.276,1149.997,600.008,1149.997z M600.008,80.349&#10;&#9;&#9;c-286.54,0-519.661,233.116-519.661,519.654c0,286.532,233.122,519.648,519.661,519.648c286.532,0,519.646-233.116,519.646-519.648&#10;&#9;&#9;C1119.654,313.465,886.54,80.349,600.008,80.349z" style="fill: rgb(255, 255, 255);"/>
	<path fill="#AAC70E" d="M744.796,470.9H638.036v-70.065c0-26.272,17.396-32.413,29.709-32.413c12.24,0,75.31,0,75.31,0V252.868&#10;&#9;&#9;l-103.759-0.414c-115.176,0-141.395,86.2-141.395,141.358V470.9h-66.598v119.095h66.598c0,152.864,0,337.081,0,337.081h140.135&#10;&#9;&#9;c0,0,0-186.04,0-337.081h94.505L744.796,470.9z" style="fill: rgb(255, 255, 255);"/>
</g>
</svg>